<svg width="24" height="23" viewBox="0 0 24 23" fill="none" xmlns="http://www.w3.org/2000/svg">
<g id="Bag 4">
<g id="Vector">
<path d="M6.53043 9.46967C6.23753 9.17678 5.76266 9.17678 5.46977 9.46967C5.17687 9.76256 5.17687 10.2374 5.46977 10.5303L6.06977 11.1303C9.345 14.4056 14.6552 14.4056 17.9304 11.1303L18.5304 10.5303C18.8233 10.2374 18.8233 9.76256 18.5304 9.46967C18.2375 9.17678 17.7627 9.17678 17.4698 9.46967L16.8698 10.0697C14.1803 12.7591 9.81987 12.7591 7.13043 10.0697L6.53043 9.46967Z" fill="white"/>
<path fill-rule="evenodd" clip-rule="evenodd" d="M12.0001 0.25C9.07864 0.25 6.66629 2.42852 6.29861 5.25L5.63604 5.25C4.64035 5.24997 3.81466 5.24994 3.16665 5.34049C2.48541 5.43567 1.87328 5.64585 1.40775 6.16597C0.942219 6.68609 0.800929 7.31769 0.781555 8.00527C0.763127 8.65932 0.854334 9.47995 0.964319 10.4695L1.27221 13.2405C1.50224 15.3109 1.6829 16.937 1.98975 18.2008C2.30427 19.4962 2.77206 20.5072 3.64051 21.2845C4.5098 22.0625 5.57127 22.4154 6.90066 22.5847C8.1986 22.75 9.84675 22.75 11.9466 22.75H12.0536C14.1534 22.75 15.8016 22.75 17.0995 22.5847C18.4289 22.4154 19.4904 22.0625 20.3597 21.2845C21.2281 20.5072 21.6959 19.4962 22.0104 18.2008C22.3173 16.937 22.4979 15.311 22.728 13.2406L23.0359 10.4695C23.1459 9.47996 23.2371 8.65931 23.2186 8.00527C23.1993 7.31769 23.058 6.68609 22.5924 6.16597C22.1269 5.64585 21.5148 5.43567 20.8335 5.34049C20.1855 5.24994 19.3598 5.24997 18.3642 5.25L17.7016 5.25C17.334 2.42858 14.9215 0.25 12.0001 0.25ZM12.0001 1.75C14.0914 1.75 15.83 3.26063 16.1842 5.25H7.81601C8.17011 3.26068 9.90882 1.75 12.0001 1.75ZM2.52544 7.16635C2.65615 7.02031 2.86356 6.89741 3.37423 6.82605C3.90616 6.75173 4.62615 6.75 5.69138 6.75H18.3088C19.374 6.75 20.094 6.75173 20.626 6.82605C21.1366 6.89741 21.344 7.02031 21.4748 7.16635C21.6055 7.31239 21.7047 7.5321 21.7192 8.04752C21.7344 8.58441 21.6566 9.30019 21.5389 10.3589L21.2431 13.0215C21.0058 15.1569 20.8343 16.6873 20.5528 17.8469C20.2763 18.9857 19.9146 19.6697 19.3593 20.1668C18.8048 20.6631 18.0818 20.9475 16.91 21.0967C15.7178 21.2486 14.1651 21.25 12.0001 21.25C9.83507 21.25 8.2824 21.2486 7.09019 21.0967C5.91843 20.9475 5.19541 20.6631 4.6409 20.1668C4.08555 19.6697 3.7239 18.9857 3.4474 17.8469C3.16586 16.6873 2.99437 15.1569 2.7571 13.0215L2.46126 10.3589C2.34362 9.30019 2.26583 8.58441 2.28096 8.04752C2.29548 7.5321 2.39473 7.31239 2.52544 7.16635Z" fill="white"/>
</g>
</g>
</svg>
