<svg width="16" height="16" viewBox="0 0 16 16" fill="none" xmlns="http://www.w3.org/2000/svg">
<g id="Bell_pin">
<path id="Subtract" fill-rule="evenodd" clip-rule="evenodd" d="M9.63689 1.649C9.12958 1.44501 8.57668 1.33325 8 1.33325C5.76263 1.33325 3.88305 3.01556 3.63597 5.23924L3.46811 6.75005L3.46407 6.78609C3.38885 7.44157 3.17549 8.07366 2.83807 8.64064L2.81944 8.67175L2.43409 9.31401L2.41799 9.34083C2.25698 9.60914 2.1111 9.85223 2.01393 10.0586C1.91518 10.2682 1.8096 10.5523 1.86042 10.8744C1.91066 11.1928 2.07451 11.4822 2.32166 11.689C2.5717 11.8983 2.86962 11.9539 3.10021 11.9771C3.32712 12 3.61061 11.9999 3.92352 11.9999H3.92354L3.95482 11.9999H12.0452L12.0765 11.9999H12.0765C12.3894 11.9999 12.6729 12 12.8998 11.9771C13.1304 11.9539 13.4283 11.8983 13.6783 11.689C13.9255 11.4822 14.0893 11.1928 14.1396 10.8744C14.1904 10.5523 14.0848 10.2682 13.9861 10.0586C13.8889 9.85222 13.743 9.60913 13.582 9.34081L13.5659 9.31401L13.1806 8.67175L13.1619 8.64064C12.9094 8.21637 12.7264 7.75564 12.6188 7.27593C12.4183 7.31357 12.2114 7.33325 12 7.33325C11.744 7.33325 11.4948 7.3044 11.2554 7.24977C11.3784 7.9809 11.6361 8.68384 12.0161 9.32252L12.0372 9.35774L12.4226 10C12.6049 10.3039 12.7148 10.4886 12.7798 10.6267L12.7896 10.648L12.7663 10.6505C12.6145 10.6658 12.3996 10.6666 12.0452 10.6666H3.95482C3.60043 10.6666 3.38551 10.6658 3.23368 10.6505L3.21037 10.648L3.22018 10.6267C3.28519 10.4886 3.39508 10.3039 3.57741 10L3.96277 9.35775L3.98386 9.32252C4.41768 8.59354 4.692 7.78086 4.78871 6.93809L4.79328 6.8973L4.96115 5.38648C5.1332 3.83804 6.44203 2.66659 8 2.66659C8.30868 2.66659 8.60758 2.71257 8.8898 2.79836C9.05777 2.36388 9.31415 1.9734 9.63689 1.649ZM11.3214 2.85195C10.9295 3.08414 10.6667 3.51134 10.6667 3.99992C10.6667 4.0966 10.677 4.19089 10.6965 4.28173C10.7768 4.43165 10.845 4.58928 10.8998 4.75338C11.1401 5.10356 11.5432 5.33325 12 5.33325C12.1279 5.33325 12.2516 5.31524 12.3687 5.28161L12.364 5.23924C12.2625 4.32575 11.8855 3.50362 11.3214 2.85195Z" fill="white"/>
<path id="Ellipse 45" d="M6.06815 11.7765C6.1821 12.4144 6.43319 12.978 6.78248 13.3801C7.13177 13.7821 7.55973 14 8 14C8.44027 14 8.86823 13.7821 9.21752 13.3801C9.56681 12.978 9.8179 12.4144 9.93185 11.7765" stroke="white" stroke-width="1.33333" stroke-linecap="round"/>
<circle id="Ellipse 6" cx="12" cy="4.00008" r="1.66667" fill="white" stroke="white" stroke-width="0.666667"/>
</g>
</svg>
