<svg width="24" height="21" viewBox="0 0 24 21" fill="none" xmlns="http://www.w3.org/2000/svg">
<g id="Buy 3">
<g id="Vector">
<path fill-rule="evenodd" clip-rule="evenodd" d="M1.7276 0.818032C1.62714 0.416185 1.21994 0.171865 0.818093 0.272326C0.416246 0.372788 0.171926 0.779989 0.272387 1.18183L1.32413 5.38881L2.30294 9.47281C2.71914 11.2094 3.04673 12.5763 3.43548 13.6382C3.83424 14.7274 4.32325 15.5731 5.10782 16.2215C5.17553 16.2775 5.24451 16.3319 5.31471 16.3847C6.12817 16.9965 7.06448 17.275 8.21668 17.4089C9.33991 17.5394 10.7455 17.5394 12.5312 17.5394H13.1246C14.6697 17.5394 15.886 17.5394 16.8658 17.4403C17.8694 17.3388 18.6952 17.1282 19.4383 16.663C19.7908 16.4423 20.1183 16.184 20.415 15.8926C21.0407 15.2784 21.438 14.5245 21.7706 13.5722C22.0953 12.6424 22.3788 11.4597 22.7388 9.95721L22.7598 9.86994C22.9769 8.96408 23.1559 8.21733 23.225 7.61247C23.2968 6.98468 23.2675 6.38692 22.9541 5.84113C22.8201 5.60769 22.6525 5.3952 22.4567 5.21045C21.999 4.77849 21.4245 4.6107 20.7973 4.53416C20.193 4.46042 19.4252 4.46044 18.4936 4.46046L2.63821 4.46046L1.7276 0.818032ZM9.25 12.9999C9.25 12.5857 9.58579 12.2499 10 12.2499H16C16.4142 12.2499 16.75 12.5857 16.75 12.9999C16.75 13.4141 16.4142 13.7499 16 13.7499H10C9.58579 13.7499 9.25 13.4141 9.25 12.9999Z" fill="white"/>
<path d="M9.42104 20.9999C10.0024 20.9999 10.4737 20.5287 10.4737 19.9473C10.4737 19.3659 10.0024 18.8947 9.42104 18.8947C8.83969 18.8947 8.36841 19.3659 8.36841 19.9473C8.36841 20.5287 8.83969 20.9999 9.42104 20.9999Z" fill="white"/>
<path d="M15.7368 20.9999C16.3182 20.9999 16.7895 20.5287 16.7895 19.9473C16.7895 19.3659 16.3182 18.8947 15.7368 18.8947C15.1555 18.8947 14.6842 19.3659 14.6842 19.9473C14.6842 20.5287 15.1555 20.9999 15.7368 20.9999Z" fill="white"/>
</g>
</g>
</svg>
