<svg width="24" height="24" viewBox="0 0 24 24" fill="none" xmlns="http://www.w3.org/2000/svg">
<g id="Hicon / Bold / Buy 3">
<g id="Buy 3">
<g id="Vector">
<path fill-rule="evenodd" clip-rule="evenodd" d="M1.7276 1.81803C1.62714 1.41619 1.21994 1.17186 0.818093 1.27233C0.416246 1.37279 0.171926 1.77999 0.272387 2.18183L1.32413 6.38881L2.30294 10.4728C2.71914 12.2094 3.04673 13.5763 3.43548 14.6382C3.83424 15.7274 4.32325 16.5731 5.10782 17.2215C5.17553 17.2775 5.24451 17.3319 5.31471 17.3847C6.12817 17.9965 7.06448 18.275 8.21668 18.4089C9.33991 18.5394 10.7455 18.5394 12.5312 18.5394H13.1246C14.6697 18.5394 15.886 18.5394 16.8658 18.4403C17.8694 18.3388 18.6952 18.1282 19.4383 17.663C19.7908 17.4423 20.1183 17.184 20.415 16.8926C21.0407 16.2784 21.438 15.5245 21.7706 14.5722C22.0953 13.6424 22.3788 12.4597 22.7388 10.9572L22.7598 10.8699C22.9769 9.96408 23.1559 9.21733 23.225 8.61247C23.2968 7.98468 23.2675 7.38692 22.9541 6.84113C22.8201 6.60769 22.6525 6.3952 22.4567 6.21045C21.999 5.77849 21.4245 5.6107 20.7973 5.53416C20.193 5.46042 19.4252 5.46044 18.4936 5.46046L2.63821 5.46046L1.7276 1.81803ZM9.25 13.9999C9.25 13.5857 9.58579 13.2499 10 13.2499H16C16.4142 13.2499 16.75 13.5857 16.75 13.9999C16.75 14.4141 16.4142 14.7499 16 14.7499H10C9.58579 14.7499 9.25 14.4141 9.25 13.9999Z" fill="#2D264B"/>
<path d="M9.42104 21.9999C10.0024 21.9999 10.4737 21.5287 10.4737 20.9473C10.4737 20.3659 10.0024 19.8947 9.42104 19.8947C8.83969 19.8947 8.36841 20.3659 8.36841 20.9473C8.36841 21.5287 8.83969 21.9999 9.42104 21.9999Z" fill="#2D264B"/>
<path d="M15.7368 21.9999C16.3182 21.9999 16.7895 21.5287 16.7895 20.9473C16.7895 20.3659 16.3182 19.8947 15.7368 19.8947C15.1555 19.8947 14.6842 20.3659 14.6842 20.9473C14.6842 21.5287 15.1555 21.9999 15.7368 21.9999Z" fill="#2D264B"/>
</g>
</g>
</g>
</svg>
