<svg width="24" height="24" viewBox="0 0 24 24" fill="none" xmlns="http://www.w3.org/2000/svg">
<path id="Vector" fill-rule="evenodd" clip-rule="evenodd" d="M18.8479 1.41855C14.5282 -0.472851 9.47183 -0.472851 5.15208 1.41855C2.38016 2.63224 0.501611 5.03715 0.185472 7.78379L0.136054 8.21313C-0.030292 9.65836 -0.0441345 11.1144 0.0947096 12.5619L0.141104 13.0456C0.217105 13.8382 0.260947 14.2953 0.346265 14.7323C0.809574 17.1051 2.20143 19.2529 4.27229 20.7932C4.65361 21.0768 5.07534 21.3385 5.80707 21.7926L6.18339 22.0261C7.15751 22.6307 7.74654 22.9963 8.34858 23.2554C10.6561 24.2482 13.344 24.2482 15.6514 23.2554C16.2535 22.9963 16.8425 22.6308 17.8166 22.0261L18.1928 21.7927C18.9246 21.3386 19.3464 21.0768 19.7277 20.7932C21.7986 19.2529 23.1904 17.1051 23.6537 14.7323C23.7391 14.2954 23.7829 13.8382 23.8589 13.0456L23.9053 12.5619C24.0441 11.1144 24.0303 9.65836 23.8639 8.21313L23.8145 7.78379C23.4984 5.03715 21.6198 2.63224 18.8479 1.41855ZM16.4557 8.88054C16.8606 9.2197 16.8825 9.7892 16.5046 10.1526L11.7046 14.768C11.519 14.9464 11.2606 15.0495 10.9887 15.0537C10.7168 15.058 10.4546 14.9629 10.2623 14.7903L7.51943 12.3287C7.12779 11.9773 7.12779 11.4074 7.51943 11.0559C7.91107 10.7045 8.54605 10.7045 8.93769 11.0559L10.9465 12.8588L15.0383 8.92441C15.4162 8.56103 16.0508 8.54139 16.4557 8.88054Z" fill="white"/>
</svg>
