<svg width="24" height="21" viewBox="0 0 24 21" fill="none" xmlns="http://www.w3.org/2000/svg">
<g id="Headphone 2">
<g id="Vector">
<path d="M13.603 19.1055C12.543 19.2982 11.457 19.2982 10.397 19.1055C5.63419 18.2395 2.42018 13.7473 3.13829 8.95989L3.14647 8.90537C4.59716 8.82924 5.75 7.62885 5.75 6.1592L5.75 4.1592C5.75 2.64042 4.51879 1.4092 3 1.4092C1.48122 1.4092 0.250002 2.64042 0.250001 4.1592L0.250001 6.1592C0.250001 7.2001 0.827855 8.10481 1.67971 8.57188L1.65488 8.73738C0.816571 14.3261 4.56858 19.5703 10.1287 20.5813C11.3661 20.8062 12.6339 20.8062 13.8713 20.5813C19.4314 19.5703 23.1834 14.3261 22.3451 8.73738L22.3203 8.57188C23.1721 8.10481 23.75 7.20011 23.75 6.15921L23.75 4.15921C23.75 2.64042 22.5188 1.4092 21 1.4092C19.4812 1.4092 18.25 2.64042 18.25 4.1592L18.25 6.1592C18.25 7.62885 19.4028 8.82924 20.8535 8.90537L20.8617 8.95989C21.5798 13.7473 18.3658 18.2395 13.603 19.1055Z" fill="white"/>
<path d="M16.4697 9.68953C16.7626 9.98243 17.2374 9.98243 17.5303 9.68954C17.8232 9.39664 17.8232 8.92177 17.5303 8.62888L17.1303 8.22887C17.0686 8.16719 17.0434 8.14192 17.0231 8.12106C15.4204 6.47173 15.4204 3.84668 17.0231 2.19734C17.0434 2.17649 17.0686 2.15122 17.1303 2.08953L17.5303 1.68953C17.8232 1.39664 17.8232 0.921768 17.5303 0.628873C17.2374 0.335981 16.7626 0.335981 16.4697 0.628873L16.0643 1.03429C16.0096 1.08894 15.9761 1.12248 15.9474 1.15198C13.779 3.38343 13.779 6.93497 15.9474 9.16643C15.9761 9.19599 16.0095 9.22939 16.0644 9.28424L16.4697 9.68953Z" fill="white"/>
<path d="M6.46967 8.62887C6.17678 8.92177 6.17678 9.39664 6.46967 9.68953C6.76256 9.98243 7.23744 9.98243 7.53033 9.68953L7.93558 9.28429C7.99046 9.2294 8.02387 9.19599 8.0526 9.16643C10.221 6.93497 10.221 3.38343 8.05261 1.15198C8.02389 1.12244 7.99051 1.08905 7.93569 1.03423L7.53033 0.628872C7.23744 0.33598 6.76257 0.33598 6.46967 0.628872C6.17678 0.921767 6.17678 1.39664 6.46967 1.68953L6.86967 2.08953C6.93136 2.15122 6.9566 2.17649 6.97687 2.19734C8.57962 3.84668 8.57962 6.47173 6.97686 8.12106C6.9566 8.14192 6.93136 8.16718 6.86967 8.22887L6.46967 8.62887Z" fill="white"/>
</g>
</g>
</svg>
