<svg width="22" height="22" viewBox="0 0 22 22" fill="none" xmlns="http://www.w3.org/2000/svg">
<g id="COCO/Bold/Phone">
<path id="Vector" d="M5.19801 0.333313C4.7988 0.333313 4.40228 0.394179 4.02008 0.51352L3.72793 0.604745C2.0261 1.13614 0.79364 2.65615 0.47325 4.47435C0.286708 5.53297 0.286708 6.62084 0.473249 7.67946C0.480585 7.72109 0.4884 7.76257 0.496687 7.80388C1.83147 14.7417 7.2582 20.1685 14.196 21.5033C14.2374 21.5116 14.2789 21.5194 14.3205 21.5267C15.3792 21.7133 16.467 21.7133 17.5256 21.5267C19.3438 21.2064 20.8639 19.9739 21.3952 18.2721L21.4865 17.9799C21.6058 17.5977 21.6667 17.2012 21.6667 16.802C21.6667 14.8831 19.977 13.4615 18.0662 13.4615H13.78C11.8692 13.4615 10.1795 14.8831 10.1795 16.802C10.1795 17.2012 10.2404 17.5977 10.3597 17.9799L10.4509 18.2721C10.4821 18.3718 10.5166 18.47 10.5544 18.5664C7.46331 17.0443 4.95569 14.5367 3.43359 11.4456C3.53003 11.4834 3.62818 11.5179 3.72793 11.5491L4.02008 11.6403C4.40228 11.7596 4.7988 11.8205 5.19801 11.8205C7.11685 11.8205 8.53848 10.1308 8.53847 8.22002L8.53847 3.9338C8.53848 2.02298 7.11685 0.333313 5.19801 0.333313Z" fill="#FEBD02"/>
</g>
</svg>
