<svg width="16" height="16" viewBox="0 0 16 16" fill="none" xmlns="http://www.w3.org/2000/svg">
<g id="vuesax/linear/whatsapp">
<g id="whatsapp">
<path id="Vector" d="M4.59996 13.7333C5.59996 14.3333 6.79996 14.6666 7.99996 14.6666C11.6666 14.6666 14.6666 11.6666 14.6666 7.99998C14.6666 4.33331 11.6666 1.33331 7.99996 1.33331C4.33329 1.33331 1.33329 4.33331 1.33329 7.99998C1.33329 9.19998 1.66662 10.3333 2.19996 11.3333L1.62692 13.5373C1.4971 14.0366 1.95924 14.4878 2.45528 14.3461L4.59996 13.7333Z" stroke="#2C2C2C" stroke-miterlimit="10" stroke-linecap="round" stroke-linejoin="round"/>
<path id="Vector_2" d="M11 9.899C11 10.007 10.9759 10.118 10.9248 10.226C10.8738 10.334 10.8077 10.436 10.7205 10.532C10.5733 10.694 10.4111 10.811 10.2278 10.886C10.0475 10.961 9.85224 11 9.64193 11C9.33547 11 9.00797 10.928 8.66246 10.781C8.31694 10.634 7.97142 10.436 7.62891 10.187C7.28339 9.935 6.9559 9.656 6.64343 9.347C6.33396 9.035 6.05454 8.708 5.80517 8.366C5.5588 8.024 5.3605 7.682 5.21629 7.343C5.07207 7.001 4.99996 6.674 4.99996 6.362C4.99996 6.158 5.03602 5.963 5.10812 5.783C5.18023 5.6 5.2944 5.432 5.45364 5.282C5.64593 5.093 5.85625 5 6.07858 5C6.16271 5 6.24683 5.018 6.32194 5.054C6.40006 5.09 6.46917 5.144 6.52325 5.222L7.22029 6.203C7.27437 6.278 7.31343 6.347 7.34047 6.413C7.36751 6.476 7.38254 6.539 7.38254 6.596C7.38254 6.668 7.3615 6.74 7.31944 6.809C7.28038 6.878 7.2233 6.95 7.15119 7.022L6.92285 7.259C6.8898 7.292 6.87477 7.331 6.87477 7.379C6.87477 7.403 6.87778 7.424 6.88379 7.448C6.8928 7.472 6.90181 7.49 6.90782 7.508C6.9619 7.607 7.05504 7.736 7.18724 7.892C7.32245 8.048 7.46666 8.207 7.6229 8.366C7.78514 8.525 7.94137 8.672 8.10061 8.807C8.25685 8.939 8.38604 9.029 8.48819 9.083C8.50322 9.089 8.52124 9.098 8.54228 9.107C8.56631 9.116 8.59035 9.119 8.61739 9.119C8.66846 9.119 8.70752 9.101 8.74057 9.068L8.96892 8.843C9.04403 8.768 9.11614 8.711 9.18524 8.675C9.25434 8.633 9.32345 8.612 9.39856 8.612C9.45565 8.612 9.51574 8.624 9.58183 8.651C9.64793 8.678 9.71704 8.717 9.79215 8.768L10.7866 9.473C10.8648 9.527 10.9188 9.59 10.9519 9.665C10.9819 9.74 11 9.815 11 9.899Z" stroke="#2C2C2C" stroke-miterlimit="10"/>
</g>
</g>
</svg>
